<svg xmlns="http://www.w3.org/2000/svg" width="96" height="92" viewBox="0 0 96 92"><defs><style>.a{fill:#01468e;}.b{fill:#58a4f2;}.c,.d{fill:#fff;}.c{font-size:18px;font-family:Avenir-Black, Avenir;font-weight:800;}</style></defs><g transform="translate(-592 -2640)"><circle class="a" cx="46" cy="46" r="46" transform="translate(592 2640)"/><g transform="translate(-3.632 0.368)"><circle class="b" cx="16.5" cy="16.5" r="16.5" transform="translate(658.632 2639.632)"/><text class="c" transform="translate(674.632 2661.632)"><tspan x="-5.328" y="0">1</tspan></text></g><path class="d" d="M7.062,0A7.389,7.389,0,0,0,1.687,1.887,6.239,6.239,0,0,0,0,5.547l2.859.372a3.465,3.465,0,0,1,.886-1.973A4.246,4.246,0,0,1,7.062,2.859a5.045,5.045,0,0,1,3.488.972,2.39,2.39,0,0,1,.8,1.887c0,2.373-.972,3.031-2.4,4.289A8.149,8.149,0,0,0,5.633,16.44v.715H8.492V16.44c0-2.373.886-3.031,2.316-4.289s3.4-3.088,3.4-6.433a5.493,5.493,0,0,0-1.687-4.031A7.9,7.9,0,0,0,7.062,0ZM5.633,20.014v2.859H8.492V20.014Z" transform="translate(630.937 2674.627)"/></g></svg>