<svg xmlns="http://www.w3.org/2000/svg" width="92" height="92" viewBox="0 0 92 92"><defs><style>.a{fill:#01468e;}.b,.d{fill:#fff;}.c{fill:#58a4f2;}.d{font-size:18px;font-family:Avenir-Black, Avenir;font-weight:800;}</style></defs><g transform="translate(-807 -2640)"><circle class="a" cx="46" cy="46" r="46" transform="translate(807 2640)"/><path class="b" d="M17.76,34.875h.479a7.6,7.6,0,0,0,7.594-7.594V23.365a12.5,12.5,0,1,0-15.666,0v3.916a7.6,7.6,0,0,0,7.594,7.594Zm.479-2.25H17.76a5.351,5.351,0,0,1-4.966-3.375H23.206a5.351,5.351,0,0,1-4.966,3.375ZM23.583,27H12.417V24.187H23.584ZM7.75,13.625A10.25,10.25,0,1,1,24.044,21.9L24,21.937H12l-.047-.034a10.293,10.293,0,0,1-4.206-8.278Z" transform="translate(835.5 2667.875)"/><g transform="translate(207.368 0.368)"><circle class="c" cx="16.5" cy="16.5" r="16.5" transform="translate(658.632 2639.632)"/><text class="d" transform="translate(674.632 2661.632)"><tspan x="-5.328" y="0">2</tspan></text></g></g></svg>