<svg xmlns="http://www.w3.org/2000/svg" width="92" height="92" viewBox="0 0 92 92"><defs><style>.a{fill:#01468e;}.b{fill:none;stroke:#fff;stroke-linecap:round;stroke-linejoin:round;stroke-width:2px;}.c{fill:#58a4f2;}.d{fill:#fff;font-size:18px;font-family:Avenir-Black, Avenir;font-weight:800;}</style></defs><g transform="translate(-1022 -2640)"><path class="a" d="M46,0A46,46,0,1,1,0,46,46,46,0,0,1,46,0Z" transform="translate(1022 2640)"/><g transform="translate(3)"><g transform="translate(1048.858 2670.005)"><path class="b" d="M21.96,30.173V27.615A5.115,5.115,0,0,0,16.845,22.5H6.615A5.115,5.115,0,0,0,1.5,27.615v2.558" transform="translate(0 -2.655)"/><path class="b" d="M17.73,9.615A5.115,5.115,0,1,1,12.615,4.5,5.115,5.115,0,0,1,17.73,9.615Z" transform="translate(-0.885)"/></g><g transform="translate(1068.5 2698.5) rotate(-90)"><path class="b" d="M10.5,15l5.293,5.293L21.086,15" transform="translate(-1.766 -3.09)"/><path class="b" d="M18,17.2V4.5" transform="translate(-3.972)"/></g></g><g transform="translate(422.368 0.368)"><circle class="c" cx="16.5" cy="16.5" r="16.5" transform="translate(658.632 2639.632)"/><text class="d" transform="translate(675.632 2662.632)"><tspan x="-5.328" y="0">3</tspan></text></g></g></svg>