<svg xmlns="http://www.w3.org/2000/svg" width="92" height="92" viewBox="0 0 92 92"><defs><style>.a{fill:#01468e;}.b,.c{fill:none;stroke:#fff;stroke-width:2px;}.c{stroke-linecap:round;stroke-linejoin:round;}.d{fill:#58a4f2;}.e{fill:#fff;font-size:18px;font-family:Avenir-Black, Avenir;font-weight:800;}</style></defs><g transform="translate(-1237 -2640)"><circle class="a" cx="46" cy="46" r="46" transform="translate(1237 2640)"/><g transform="translate(0 5)"><path class="b" d="M8568.1,3226.85a18.969,18.969,0,0,1,7.222-1.516c4.111-.038,7.686,1.307,12.158.7s8.939-.8,12.3.12,2.982,1.1,2.982,1.1a16.539,16.539,0,0,1,0,2.352,28.822,28.822,0,0,0-1.129,3.663c-.156.875-.691,1.2-.931,1.2a.8.8,0,0,0-.739.542,3.463,3.463,0,0,1-2.316,2.4,16.012,16.012,0,0,1-6.518.174,4.375,4.375,0,0,1-3.336-2.449c-.232-.67-.393-.42-.618-.958s-.293-2.723-.708-2.952-2.118-.338-2.236,0a14.1,14.1,0,0,1-.668,2.607c-.322.456-.58.417-.713.855a3.835,3.835,0,0,1-3.367,2.9c-2.55.209-5.746.349-7.074-.63a6.662,6.662,0,0,1-1.793-2.489,1.2,1.2,0,0,0-.82-.422c-.4-.058-.838-.821-.986-1.452a29.224,29.224,0,0,1-.706-3.443A9.714,9.714,0,0,1,8568.1,3226.85Z" transform="translate(-7302.376 -544.372)"/><g transform="translate(1289.597 2689.065) rotate(-135)"><path class="c" d="M10.5,15l5.293,5.293L21.086,15" transform="translate(-1.766 -3.09)"/><path class="c" d="M18,17.2V4.5" transform="translate(-3.972)"/></g></g><g transform="translate(637.368 0.368)"><circle class="d" cx="16.5" cy="16.5" r="16.5" transform="translate(658.632 2639.632)"/><text class="e" transform="translate(675.632 2662.632)"><tspan x="-5.328" y="0">4</tspan></text></g></g></svg>