<svg xmlns="http://www.w3.org/2000/svg" width="28.61" height="23.16" viewBox="0 0 28.61 23.16"><defs><style>.a{fill:#ffffff;}</style></defs><g transform="translate(-575.5 -264)"><g transform="translate(575.5 264)"><path class="a" d="M11.312,13.268a.681.681,0,0,0-.272-.545L5.59,8.636a.681.681,0,1,0-.817,1.09L9.5,13.268,4.773,16.81a.681.681,0,0,0,.409,1.226.672.672,0,0,0,.407-.136l5.449-4.087A.678.678,0,0,0,11.312,13.268Z" transform="translate(-0.413 -1.688)"/><path class="a" d="M12.268,14.5H8.181a.681.681,0,1,0,0,1.362h4.087a.681.681,0,1,0,0-1.362Z" transform="translate(0.674 0.486)"/><path class="a" d="M26.7,3.5H4.906A3.41,3.41,0,0,0,1.5,6.906V23.254A3.41,3.41,0,0,0,4.906,26.66H26.7a3.41,3.41,0,0,0,3.406-3.406V6.906A3.41,3.41,0,0,0,26.7,3.5Zm2.044,19.754A2.046,2.046,0,0,1,26.7,25.3H4.906a2.046,2.046,0,0,1-2.044-2.044V6.906A2.046,2.046,0,0,1,4.906,4.862H26.7a2.046,2.046,0,0,1,2.044,2.044Z" transform="translate(-1.5 -3.5)"/></g><path class="a" d="M3.335,0A3.49,3.49,0,0,0,.8.891,2.946,2.946,0,0,0,0,2.62L1.35,2.8a1.636,1.636,0,0,1,.419-.932A2.005,2.005,0,0,1,3.335,1.35a2.382,2.382,0,0,1,1.647.459,1.129,1.129,0,0,1,.378.891c0,1.121-.459,1.431-1.134,2.025A3.849,3.849,0,0,0,2.66,7.764V8.1H4.01V7.764A2.246,2.246,0,0,1,5.1,5.739,3.872,3.872,0,0,0,6.711,2.7a2.594,2.594,0,0,0-.8-1.9A3.732,3.732,0,0,0,3.335,0ZM2.66,9.452V10.8H4.01V9.452Z" transform="translate(592.265 270.013)"/></g></svg>