<svg xmlns="http://www.w3.org/2000/svg" width="30.989" height="20.06" viewBox="0 0 30.989 20.06"><defs><style>.a{fill:none;stroke:#fff;stroke-linecap:round;stroke-linejoin:round;stroke-width:2px;}</style></defs><g transform="translate(6.523 -3.413)"><path class="a" d="M17.476,28.491v-2A3.994,3.994,0,0,0,13.482,22.5H5.494A3.994,3.994,0,0,0,1.5,26.494v2" transform="translate(0 -6.018)"/><path class="a" d="M15.488,8.494A3.994,3.994,0,1,1,11.494,4.5a3.994,3.994,0,0,1,3.994,3.994Z" transform="translate(-2.006 0)"/><path class="a" d="M33,28.556v-2A3.994,3.994,0,0,0,30,22.7" transform="translate(-9.529 -6.083)"/><path class="a" d="M30,28.556v-2A3.994,3.994,0,0,1,33,22.7" transform="translate(-35.523 -6.083)"/><path class="a" d="M24,4.7a3.994,3.994,0,0,1,0,7.738" transform="translate(-7.523 -0.065)"/><path class="a" d="M27,4.7a3.994,3.994,0,0,0,0,7.738" transform="translate(-25.537 -0.065)"/></g></svg>