<svg xmlns="http://www.w3.org/2000/svg" width="14.21" height="22.873" viewBox="0 0 14.21 22.873"><defs><style>.a{fill:#fff;}</style></defs><path class="a" d="M7.062,0A7.389,7.389,0,0,0,1.687,1.887,6.239,6.239,0,0,0,0,5.547l2.859.372a3.465,3.465,0,0,1,.886-1.973A4.246,4.246,0,0,1,7.062,2.859a5.045,5.045,0,0,1,3.488.972,2.39,2.39,0,0,1,.8,1.887c0,2.373-.972,3.031-2.4,4.289A8.149,8.149,0,0,0,5.633,16.44v.715H8.492V16.44c0-2.373.886-3.031,2.316-4.289s3.4-3.088,3.4-6.433a5.493,5.493,0,0,0-1.687-4.031A7.9,7.9,0,0,0,7.062,0ZM5.633,20.014v2.859H8.492V20.014Z"/></svg>