<svg xmlns="http://www.w3.org/2000/svg" width="77.9" height="42.744" viewBox="0 0 77.9 42.744"><defs><style>.a{fill:#fff;}.b{fill:#09519f;}</style></defs><g transform="translate(-3019.08 1362.09)"><path class="a" d="M3465.358-1342.522l4.191-8.281-.481-.428,0-.008-.02-.006-12.183-10.844-4.977,5.666-3.7,4.519-8.363-7.343-7.554,3.6q.269.346.525.7l6.359-3.034,1.336,5.536-6.728-1.053q.291.472.561.958l6.385,1,1.379,5.714-6.826-4.843q.327.73.606,1.484l5.416,3.842-4.441-.479q.094.439.172.883l4.959.535-4.641,5.174q-.044.721-.128,1.431l5.389-6.007,2,7.616-7.654.114c-.056.289-.115.577-.181.862l8.059-.12,2.233,8.518-10.329-8.25q-.109.46-.235.912l9.6,7.667-7.415-1.626-2.232-5.875q-.191.666-.42,1.316l1.648,4.34-3.26-.715q-.217.4-.448.782l4.073.893,2.334,6.147-7.266-5.7q-.244.355-.5.7l8.763,6.875,7.833-6.859.043-.037.672-1.007,6.293,4.435,9.052-5.634,2.86-7.717-5.812-4.2Zm-23.84,21.9-2.479-6.528,7.945,1.742Zm13.867-15.908-.977-6.9,9.7.738Zm5.14-2.579,1.107,2.766-4.855-.118Zm-6.084,2.045-10.048-7.129,9.137.7Zm10.477-6.494-.032-.035-3.936-9.446,7.5,2.5Zm-1.742-1.9-8.993-9.83,5.686,1.893Zm3.81-6.473-6.474-2.156-2.389-5.733Zm-10.171-8.794,2.616,6.278-6.29-2.095Zm6.915,17.145-9.445-.718-1.609-11.365Zm-11.837-11.486,1.515,10.7-9.664-.735Zm-11.826-2.831,7.473,6.561-6.121-.958Zm1.57,6.507,5.443.852-4.044,4.946Zm1.86,7.618,10.5,7.448-8.512.126Zm5.1,16.96-.529.463-2.357-8.992,8.668-.129Zm6.129-7.63.5,5.653-4.451.259Zm-3.914,6.772,4.492-.262.325,3.657Zm5.7,3.657-.353-3.969,7.425-.433Zm-.429-4.826-.57-6.407,8.389,5.952Zm.411-6.766,5.486.133,2.1,5.25Zm8.511,5.376-2.09-5.22,3.988.1Zm1.572-5.992-4.009-.1-1.32-3.3.32-.226Z" transform="translate(-372.57 0)"/><g transform="translate(3019.08 -1362.09)"><circle class="a" cx="19.65" cy="19.65" r="19.65" transform="translate(1.723 1.617)"/><g transform="translate(0 0)"><path class="b" d="M3019.08-1340.734a21.359,21.359,0,0,1,21.4-21.356,21.366,21.366,0,0,1,21.342,21.451,21.366,21.366,0,0,1-21.5,21.293A21.358,21.358,0,0,1,3019.08-1340.734Zm30.983,7.691a6.451,6.451,0,0,0,1.343-.138,6.647,6.647,0,0,0,5.113-8.373,6.846,6.846,0,0,0-8.482-4.483,6.625,6.625,0,0,0-4.714,7.743A6.8,6.8,0,0,0,3050.063-1333.043Zm-14.675-9.931c0-1.746-.006-3.209,0-4.672a2.041,2.041,0,0,0-1.337-2.016,3.066,3.066,0,0,0-2.733.127,1.879,1.879,0,0,0-1.076,1.786c-.007,2.792-.034,5.583-.054,8.375a1.916,1.916,0,0,1-.046.494,2.146,2.146,0,0,1-2.5,1.5,3.833,3.833,0,0,1-2.462-1.442c-.076-.094-.127-.213-.284-.075a4.9,4.9,0,0,0-1.285,1.543,2.194,2.194,0,0,0,.261,2.451,3.966,3.966,0,0,0,1.375,1.1,7.985,7.985,0,0,0,4.806.758,5.857,5.857,0,0,0,5.3-5.759C3035.433-1340.288,3035.362-1341.773,3035.389-1342.974Zm6.489,3.325c0-1.422,0-2.844,0-4.266a2.048,2.048,0,0,0-1.778-2.073,7.865,7.865,0,0,0-1.088-.023,2.036,2.036,0,0,0-2.134,2.076q-.026,4.282,0,8.563a2.02,2.02,0,0,0,1.772,2.043,7.74,7.74,0,0,0,1.057.022,2.068,2.068,0,0,0,2.171-2.17Q3041.88-1337.562,3041.877-1339.649Zm-2.515-7.7v.023c.166,0,.332,0,.5,0a2.031,2.031,0,0,0,1.938-1.477,3.313,3.313,0,0,0,.07-1.176,1.982,1.982,0,0,0-1.694-1.844,4.9,4.9,0,0,0-1.643.007,1.935,1.935,0,0,0-1.6,1.509,3.134,3.134,0,0,0-.046,1.115,1.99,1.99,0,0,0,1.7,1.837A4.9,4.9,0,0,0,3039.363-1347.347Z" transform="translate(-3019.08 1362.09)"/><path class="b" d="M3308.913-1157.106a2.789,2.789,0,0,1-2.741-3.138,2.766,2.766,0,0,1,2.268-2.47,2.666,2.666,0,0,1,2.966,2.075,2.813,2.813,0,0,1-2.21,3.506A2.625,2.625,0,0,1,3308.913-1157.106Z" transform="translate(-3277.92 1182.339)"/></g></g></g></svg>