<svg xmlns="http://www.w3.org/2000/svg" width="30.099" height="30.099" viewBox="0 0 30.099 30.099"><defs><style>.a{fill:#2e2e2e;}.b{fill:#fff;}</style></defs><circle class="a" cx="15.05" cy="15.05" r="15.05" transform="translate(0 0)"/><g transform="translate(6.227 6.205)"><path class="b" d="M833.035,161.753a1.034,1.034,0,1,0,1.034,1.034A1.034,1.034,0,0,0,833.035,161.753Z" transform="translate(-819.541 -158.602)"/><path class="b" d="M827.047,163.312a4.346,4.346,0,1,0,4.346,4.346A4.351,4.351,0,0,0,827.047,163.312Zm0,7.13a2.784,2.784,0,1,1,2.784-2.784A2.787,2.787,0,0,1,827.047,170.442Z" transform="translate(-818.152 -158.835)"/><path class="b" d="M829.7,175.7h-7.046a5.306,5.306,0,0,1-5.3-5.3V163.35a5.306,5.306,0,0,1,5.3-5.3H829.7a5.306,5.306,0,0,1,5.3,5.3v7.045A5.306,5.306,0,0,1,829.7,175.7Zm-7.046-15.986a3.644,3.644,0,0,0-3.64,3.64v7.045a3.645,3.645,0,0,0,3.64,3.641H829.7a3.645,3.645,0,0,0,3.64-3.641V163.35a3.644,3.644,0,0,0-3.64-3.64Z" transform="translate(-817.354 -158.049)"/></g></svg>