<svg xmlns="http://www.w3.org/2000/svg" width="30.262" height="30.262" viewBox="0 0 30.262 30.262"><defs><style>.a{fill:#2e2e2e;}.b{fill:#fff;}</style></defs><g transform="translate(0 0)"><g transform="translate(0 0)"><path class="a" d="M629.1,298.356a15.131,15.131,0,1,1,15.131-15.131A15.149,15.149,0,0,1,629.1,298.356Z" transform="translate(-613.966 -268.094)"/><g transform="translate(7.926 11.651)"><path class="b" d="M644,293.706v5.649a.253.253,0,0,1-.253.253h-2.917a.253.253,0,0,1-.253-.253V294.1c0-1.383-.494-2.327-1.733-2.327a1.871,1.871,0,0,0-1.755,1.251,2.33,2.33,0,0,0-.114.834v5.5a.253.253,0,0,1-.253.253h-2.916a.252.252,0,0,1-.253-.253c.007-1.4.036-8.189.006-9.784a.252.252,0,0,1,.253-.256h2.91a.253.253,0,0,1,.253.253v1.206c-.007.012-.017.023-.023.034h.023v-.034a3.4,3.4,0,0,1,3.084-1.7c2.251,0,3.94,1.471,3.94,4.632Zm-15.507,5.9h2.916a.253.253,0,0,0,.253-.253v-9.787a.253.253,0,0,0-.253-.253h-2.916a.253.253,0,0,0-.253.253v9.787A.253.253,0,0,0,628.491,299.608Z" transform="translate(-628.238 -289.074)"/></g></g><g transform="translate(7.702 6.92)"><circle class="b" cx="1.832" cy="1.832" r="1.832"/></g></g></svg>