<svg xmlns="http://www.w3.org/2000/svg" width="27.475" height="24.909" viewBox="0 0 27.475 24.909"><defs><style>.a{fill:#489cf4;}</style></defs><g transform="translate(-2.48 -6.859)"><g transform="translate(2.48 6.859)"><path class="a" d="M33.656,27.955l-.693-.491h0a4.6,4.6,0,0,1-1.993-3.437l-.26-2.686a6.388,6.388,0,0,0-5.488-5.748V14.524a.924.924,0,0,0-1.848,0v1.069a6.388,6.388,0,0,0-5.488,5.748l-.2,2.686a4.738,4.738,0,0,1-1.993,3.437L15,27.955a2.589,2.589,0,0,0-1.1,2.137v.953a1.615,1.615,0,0,0,1.617,1.617H20.11a4.261,4.261,0,0,0,8.492,0h4.592a1.615,1.615,0,0,0,1.617-1.617v-.982A2.668,2.668,0,0,0,33.656,27.955Zm-9.329,6.787a2.426,2.426,0,0,1-2.4-2.051h4.795A2.426,2.426,0,0,1,24.327,34.742Zm8.607-3.9H15.72v-.78a.68.68,0,0,1,.318-.607l.693-.491A6.47,6.47,0,0,0,19.5,24.2l.26-2.686a4.583,4.583,0,0,1,9.127,0l.26,2.686a6.47,6.47,0,0,0,2.773,4.766l.693.491a.754.754,0,0,1,.318.607Z" transform="translate(-10.601 -11.653)"/><path class="a" d="M16.134,23.64h.087a.935.935,0,0,0,.924-.838A8.2,8.2,0,0,1,19.8,17.459.92.92,0,0,0,18.56,16.1,9.958,9.958,0,0,0,15.3,22.63.976.976,0,0,0,16.134,23.64Z" transform="translate(-11.593 -13.26)"/><path class="a" d="M71.017,22.8a.917.917,0,0,0,.924.838h.087a.957.957,0,0,0,.838-1.011A9.893,9.893,0,0,0,69.6,16.1a.92.92,0,0,0-1.242,1.357A8.011,8.011,0,0,1,71.017,22.8Z" transform="translate(-49.118 -13.26)"/><path class="a" d="M82.705,15.882A13.718,13.718,0,0,0,78.4,7.1.92.92,0,1,0,77.16,8.459a11.732,11.732,0,0,1,3.726,7.625L81,17.211a.917.917,0,0,0,.924.838h.087a.957.957,0,0,0,.838-1.011Z" transform="translate(-55.376 -6.859)"/><path class="a" d="M8.147,8.459A.92.92,0,0,0,6.9,7.1a13.447,13.447,0,0,0-4.3,8.78l-.116,1.126a.89.89,0,0,0,.838.982H3.41a.935.935,0,0,0,.924-.838l.116-1.126A11.558,11.558,0,0,1,8.147,8.459Z" transform="translate(-2.48 -6.859)"/></g></g></svg>